<?xml version="1.0" encoding="UTF-8"?>
<!DOCTYPE svg PUBLIC "-//W3C//DTD SVG 1.1//EN" "http://www.w3.org/Graphics/SVG/1.1/DTD/svg11.dtd">
<!-- Creator: CorelDRAW 2019 (64-Bit) -->
<svg xmlns="http://www.w3.org/2000/svg" xml:space="preserve" width="210mm" height="297mm" version="1.1" style="shape-rendering:geometricPrecision; text-rendering:geometricPrecision; image-rendering:optimizeQuality; fill-rule:evenodd; clip-rule:evenodd"
viewBox="0 0 210000 297000"
 xmlns:xlink="http://www.w3.org/1999/xlink"
 xmlns:xodm="http://www.corel.com/coreldraw/odm/2003">
 <defs>
  <style type="text/css">
   <![CDATA[
    .fil0 {fill:#010101}
    .fil1 {fill:#3D3D3D}
    .fil2 {fill:#B4B4B4}
   ]]>
  </style>
 </defs>
 <g id="Capa_x0020_1">
  <metadata id="CorelCorpID_0Corel-Layer"/>
  <g id="_2038107589104">
   <path class="fil0" d="M96410.8 169286c268.3,-2858.1 2501.3,-6655.3 4709.2,-7440.2 80.8,3259 640.6,4485.8 928.1,7324.5 -76.2,-54.9 -169.6,-249.8 -213.5,-183.9 -43.6,65.3 -157.3,-137.5 -219.8,-173.3 -1223.1,-700.7 -665.8,-501.3 -1678.1,-511.5l-957.6 1769.7 -759.6 -1625.2 -1808.7 839.9zm7979.4 -5881.7c1492.2,487.2 2203.8,1868.1 2727.2,3456l-1138.6 -764.7 -480.1 1569.1 -1108.5 -4260.4zm979.1 -23257l416.1 337.6c55.2,32.7 234.7,91.3 328.6,171.7 285.9,-553.6 1906.9,-2551.8 3262.2,137.2l-1252.2 -520.5 -532 1103.7c-496.3,-278.8 -625.4,-342.5 -1020.5,-600.4l-1007.5 442.2 -1467.5 918c-2109,385.7 1114.9,371.6 -610.6,-292.1l-2805.1 -495.4 -751.8 2246.9c-623.6,-1311.8 -1779.6,-3689.7 -3321.3,-1890 -741.5,-841.7 -163.2,-665.3 -1143.6,-1078.4 -750.7,897.8 -900.1,662.7 -1451.1,1611.8 -1121.3,-860.4 -714.1,-1364.8 -2358.6,59.7 -3101.3,2686.9 -817.4,1813.6 -2541.3,1801.2 -1388.2,-10.2 -273.2,-788.2 -1359.3,453.5 -260.3,297.5 -739.4,1088.5 -1036.5,1483.4 -587.4,780.4 -1463.3,1895.8 -1687.3,2981 -390.8,1893.6 619.2,717.6 -506,3131.7 -766.4,1644.5 -712.1,1724.3 -557.1,3599.9 207.7,2514.7 -900.3,5392.8 -1120.5,8064.5l2202.7 -233.1c-51.5,745.6 -202.3,1636.8 -231.4,2323.8 -89.5,2107.8 332.8,1836.8 462.2,2019.9l1781 -2699.1c372,-749.9 -505.7,-1622 1795.5,-4409.7 2913.1,-3529.1 877,-2356 369.5,-3391.9 -452.1,-922.6 521.5,-4122.3 991.2,-4880.6 3965.1,-1815.5 9092.5,-149.7 13584.1,-598.3 4678.3,-467.2 6263,408.1 10509,69.2 2613.2,-208.5 1852.2,-1042.5 2752.9,-996.3 2755.9,1256.7 3166.8,3249 3159.5,6841.3l-334.8 14c-2390.5,-12.1 140.6,1256.8 -2642.2,483.1 356.6,1013.2 1075.2,687.1 753.9,1933.2 -339.7,1317.7 -1496.9,746.9 -2906.3,576.9 -232.4,628.9 -606,1301.2 -936.6,1778.9l-1004.9 -1204.3 -896.1 2534c-1934.8,-1629.2 -439.9,-3686.1 -2884.7,-6131.4 -1124.7,-1125.1 -456.5,-1665.8 -947.8,-2157.8 -1371.9,-685.9 -3733.7,-1497.8 -5253.7,-643 -1129.1,635 -214.4,857.6 -2112.4,325 -1200.4,-336.9 -1446.7,-541.2 -2621.9,200.3 -835.3,526.9 -2529.6,2275.7 -2766.6,3840.8 -378.9,2503.4 1692.4,4147.5 -822.8,5303 -1599.9,-776.8 -1013.4,-1081.8 -1301.8,-2466 -18.6,-89.2 -45.3,-179.9 -64.8,-258.5l-176.2 -485.1c-2094,527.9 -141,704.1 -1893.8,1529 -83.5,-1202.2 115.2,-1585.4 -266.3,-2511 -3234.6,532.7 -1753.8,2588.9 -4028.8,5966.3 -1141.1,1693.9 130.4,5279.5 3301.7,5368.5 240,713.8 528.6,1182.4 799.6,1660.4 2041.8,251.9 617.6,-1145.1 2172,595.8 1518.7,1701.1 1481.1,967.5 1728.2,940.3 758.2,-83.2 923.4,-25.7 1976.2,936.1 3358.2,3067.8 2894.6,441 7572.4,781.6 2639.8,192.2 912.8,-324 2230.9,-517.6 744.7,-109.3 1128.9,411.8 1456.7,794.4 381.3,445 -102.1,28.3 379.9,507.5 2727.1,-896.8 1737.4,-1364.2 2892.8,-2155.9 390.8,-267.6 854.4,497 2414.7,-2682.1l2167.1 307c294.1,-1493.1 129.2,-1037.5 1283.9,-1480.7 1204.5,-462.5 713.1,-87.4 1859.1,-229.9l88.8 -2035.5c927.3,-616.9 1158.7,-70.7 1770.2,-1736.6 755.7,-2059 857.8,-759.9 1871.9,-1349.2 -128.6,-2131.5 -818.3,-2459.1 -999.3,-4493.2 -127.1,-1427.5 -816.8,-863.9 -1893.2,-3442.7 1370,1020.4 1160.1,1817.9 3050.7,2749.4 -673.9,2376.4 -213.7,1757.6 107.6,2087.5 2314.1,-2926 1258.4,-5357.4 733.5,-9101.4 -910.3,-2187.5 -1882.6,-3343.6 -2693.7,-5700.4 -988.3,-2871.7 -1531.2,-3805.5 -3043.6,-5552.2 -1544.4,827.1 1473.4,-994.1 -527.5,421.1 -579.7,410 78.8,254 -698.3,423.7 -2942.3,-2274.1 -4546.1,-755.1 -7386.5,-2705.9 709.3,-918.1 720.3,-1550 1415.8,-2199.6 779.2,-727.9 615.1,-135.1 1891.2,-1574.3 44.8,-50.5 124.7,-144.8 161,-186.4 36.9,-42.4 102.5,-131.9 162.5,-189.5 1552.8,890.9 1366.1,1626.3 2543.5,2252.4 -580.8,-1902 -1972.7,-2744.9 -2724.5,-4089.2 -1147.9,-2052.3 -1000.4,-3390.3 -2834.7,-4094.8 407.4,1040.6 1240.3,2260.4 1568,3267 695.3,2135.7 -760.6,1826.8 -2636.4,1816.8 -48,-2464.5 681.6,-2520.3 -39.3,-5483 74.1,-48.1 206.5,-161.9 249.3,-88.7l1394.6 -528.6c-38.7,-795.5 -137.2,-2000.4 11.8,-2762.7 298.2,-1525.9 514.4,-619 872.8,-1865.9 -1138.7,-1554.3 -2289.7,-2814.2 -3128.1,-4937.2 61.2,-54.4 160.7,-213.9 189.8,-156l996.1 -839.8c-666.5,-1053.6 -2041.2,-1655.2 -1565,-3150.1 516.2,-1620.6 2007.5,-1759.3 3169.6,-1028.5 58.5,1669.3 -36.7,284.6 -645.3,1580.7l3779.5 258.4c-319.2,-693.7 -1044.5,-1492.3 -977,-2277.5 125.3,-1459.5 202.3,644.8 422.6,-1346.6 41.4,-373.8 -455.6,215.7 75,-485 1946.4,-1086.1 7874.8,-1665.6 9816.4,-1003.1l-299.1 2098.4 -1967.8 -124.2 -363.9 2511.3 1739.2 32.5c23.5,157.8 11.9,206.2 10.6,309.9l-110 1094.9c-146.3,1081.9 503,-129.9 -87.1,612.9 -1455.4,2024.1 -5019.8,1061.7 -7276.5,1643.1 1149,587.4 3423.2,424.4 4922.3,449.1 2037.2,33.6 2901.4,-625.5 4171.8,-1278.1 -54.8,658.3 -201.4,806.3 -372.7,1225.2 -296.7,725.9 -89,-61.1 -248.8,622.9l-33.1 660.5c1569,990.6 1821.4,-62.8 2870.7,-1188.7 1011,-1084.9 2196.5,-1611.1 1094.5,-2885.7 1964.2,-34.8 3062.9,-103.1 3796.3,-1579.1 325.2,3016.6 -483.4,7430.4 -3537.3,9211.4 -4254.9,2481.2 -5884.4,1993.7 -11305.8,1751 221.4,164.1 238.2,221.6 685.2,412 381.9,162.7 301.5,138.5 761.5,252.6 412.7,102.1 1162.6,181.3 1600.6,213.5 1126.2,82.8 2264.9,57.6 3356.2,-78.8 9307.1,-1163.6 8364.6,-6451.2 9044.3,-13894 1437.8,3491.8 1432.4,2661.3 2273.7,4244.8 2685.9,5054.8 -9785.3,16625.8 -10865.8,22973.5 -654.9,3847 -371.2,9708.9 712.7,13098.4 788.7,560.1 349.6,1071 488.5,1986 561.8,-312.6 792.9,-317.4 1160.3,-1578.3 576.5,-1979.1 453.5,-5294.3 372.3,-7297.9 -266.2,-6573.7 776.8,-4133.5 2176.3,-8188.5 -28.1,1532.5 -383.3,2904.4 -97.7,4839.7 252.5,1709.9 706.8,3035.9 720.3,4994.9 27.7,3970.7 -1632.6,5671.9 -2132.8,8971.6 2389.8,-901.8 4865,-6769 6151.2,-10003.4 1965.1,-4940.9 1910.7,-7893.6 2696.8,-13351.7 2617.1,676.3 3527.2,-889.4 4170.2,-2931.9 -1682.2,201.8 -2322.5,826.6 -3122.9,-515.6 -939,-1574.8 -56.2,-7921.8 -162.6,-12101 -132.7,-5218.1 407.8,-6264.6 2723.7,-10154l1451.2 -2754.1c-939.8,-959.1 -127.4,342.3 -3100.2,1321.3 272.2,-3042.1 870.1,-5247.1 779,-8470.5 -153.2,-5417.4 -467.4,-20311.7 -3506.6,-23478.5 392.9,2350.6 1492.7,2880.7 866.5,5889.6 -726.7,647.8 -1599.7,926.9 -1822.1,2170.1 -370.3,2070.4 1122.8,5159.7 1378.3,7098.2 311,2359.3 -199.4,2175.9 -1204.7,3190.9 -1612.2,1627.6 -498.7,4865.7 -1078,7230 -285.8,1166.4 -1001.4,1699.1 -812.9,3053.9 318.8,2291.7 2200.6,3442.8 -1359.2,3727.9 82,1260.2 -222,1545.2 -599.6,2226.6 555.1,992.2 1568.5,1973.7 1743.3,3313.2 -2258.5,-2619.4 -637.5,-3014.6 -5537.8,-3758.4 -7132.2,-1082.5 -10722.9,-774.3 -17165.7,1062.5 -4931.8,1406 -5162.3,-1290.1 -6376.7,-2450.7 544.2,3871.7 3203.9,2086.5 4005.5,4994 -3230.5,135.4 -5485.5,-451.6 -8049.5,1045.8l6991.9 -1.1c-211.7,3558 -440.3,5995.6 -476.3,9682.9 -13.1,1340.3 -465.4,3811.3 -305.4,4857.9 234.6,1535 1515.7,1752.8 2010.9,3264 868.9,2651 -2067.4,5935.3 -4271.3,6147.3 -1927.7,185.3 -2725,-502.9 -4163.4,-1149.3 -3709.4,-1666.8 -4164.5,1804.7 -5708.6,-3253.9 -1057.2,1850.9 732.6,4931.7 4003.4,5001.7 2709.5,57.9 1979.4,248.7 4022.6,878.8 1714.3,528.6 1956.3,-553.8 3682.9,-633.5l357.5 1115.6z"/>
   <path class="fil0" d="M67434.5 108233.4c1410,1894.8 1848.4,1698.8 2282.3,5025.6 582.7,4467.2 -200.2,9485.1 554.5,14299.4 354.8,2263.3 1287.5,4512 -1346,5184.3 -55.3,-65.1 -120.2,-261.8 -141.4,-213.9 -21.1,47.7 -107.2,-164.4 -135.5,-216.7 -991.4,-1828 -1129.6,-1786.7 -1146.1,-3147.4 -27.4,-2267.9 32.5,-2627.8 -2013.6,-3156 331.6,1630.7 1097.1,2924.3 1518.4,4782.6 692.5,3055.1 422.9,3622.9 3574.8,5668.2 3033.4,1968.4 -696.6,5529.1 5716.6,16490 726.3,1241.3 1647.5,2826.3 2444.7,3733.4l3235.5 3517c-238.4,-4073.4 -1861.3,-6966.2 -3415.1,-10118.4 -5680,-11522.3 -2595.2,-11377.7 -5784,-21377.1 -817.2,-2562.5 -418.6,-3675.3 -585.5,-6255 -128.1,-1978.2 -761.5,-3699.5 -1087.6,-5630.3 717.3,-616.1 437.1,-205.8 1301.4,-617.1 106.6,-1074.9 791.3,-3569 755.3,-4001.4 -30.5,-367.7 -1130.3,-2358.8 -1475.2,-3390.6 -1075.4,-3216.9 -640.6,-6386.8 -1423.5,-8770.7 -411.8,-1253.7 -1544,-2071.1 -1036.2,-3264.7 514.8,-1209.9 1016.3,-201.3 719.8,-4340.7 -199.7,-2791.2 -530.7,-6346.9 -1488.7,-8550.2 -433.2,4835.7 -1379.7,14578 -554.6,19403.1 115.1,672.7 607.6,2301.5 617.9,2824.3 27.3,1387.8 -529.3,795 -1088.2,2122.3z"/>
   <path class="fil0" d="M75405.4 108526.9c-250.7,349 -874.2,1338.9 -1022,1756.9 -722.8,2045 205.7,869.2 -40.5,2386.9 -1214.4,1692.7 -2018.1,2451.9 -776.8,4994.4 792.3,-80.7 1489.8,-284.5 2020.2,-667.9l1053.4 -1681.1c1340.5,327.3 2200.1,610.7 2861.2,1503 -1070.4,1415.5 -1759.4,703 -3085.8,1542.9 1581.8,2461.7 3847.7,-939.3 4369.5,-1433.8l1728 471.4c654.2,-595.4 -294.7,-1322.4 1533,-1870.5 56.3,53.1 129.8,70.2 149,177.9l740.5 1462.9c574.8,856 1043.2,779.2 2179.7,650.7 2065.2,-233.5 2575.8,-1116.8 2619.3,-3237.6 -2473.8,136.9 -965,330.2 -2565.3,1197.9 -905.7,-685.1 -246.2,-597.9 -1271.8,-1092.9 -3063.1,-5.7 -3542.4,-17.7 -6171.5,805.6 -1139.4,-871.9 -1346.7,-1574.8 -2024.6,-3063.5l872.8 -173.6c1626.3,-564.9 1499.1,-677.3 3827.4,-253.9 4346,790.2 2378.4,-275.6 5222.1,1247.5 2949,1579.4 3915.1,-1167.2 7158.6,2098.2 1333.4,1342.3 2762.2,1024.9 1449.2,3202.9 -394,653.4 -168.2,-164.4 -477.7,700.9 -16.3,45.7 -42.5,138.6 -52.1,183.5l48.5 585.3c1997.9,388.1 2256.8,-2153.8 2365.9,-4169.4 203.9,-3761.6 -731.2,-2976.8 -2281.4,-4667.7 1294.1,-1659.3 2461.6,-4630.3 1115.9,-6712.5 -888.5,3233.7 506.9,2810.7 -2063.4,4979.5 -1859.7,1569.4 -3107.3,445.5 -5891.1,366.6 -2789.8,-78.9 -4311.7,318.7 -7236.9,-294.8 -2357.4,-494.3 -3697.9,-1339.7 -6353.3,-995.7z"/>
   <path class="fil0" d="M142639.9 109953l583.7 1377c137.6,722.9 103.7,1084.6 81.2,1794 -556.1,-956 -728.8,-1832.8 -664.9,-3171zm820.6 3164.4l255 3259.5c1343.6,-2809.7 2037.1,-7821.1 521.6,-10616.9 -844,635.6 -711.3,894.5 -1484.5,1573.3 -653.6,573.6 -1162.5,664.3 -1676.1,1397.1 -805.2,1148.8 -632.3,3458.5 -1284.3,5194.3 -579.9,1544.4 -1892,3128.8 -1648.5,4635.7 383.4,2372.5 1443.7,2015 313.1,5142.8 -399.3,1104.9 -1867.9,4514.5 445.3,4228.5 1268.1,-156.9 1599.6,-2773.4 2444.2,-4102.8 1997.8,-3144.5 832.7,-7131.1 2114.2,-10711.5z"/>
   <path class="fil0" d="M72072.8 72938.5c1880,-2269.2 3073.7,-4227.5 5504,-6090.6 7273.7,-5576.1 13791,-10780.6 25290.9,-10846.1 12294.1,-69.8 24908.7,8239.3 31051.1,16857 -432.9,-2793.7 -3608.7,-5226.8 -5269.4,-6517.1 -7679.9,-5966.5 -14250.8,-11224.2 -25470,-11275.4 -7559,-34.4 -13503.3,2682.5 -18655.1,5764.3 -3741.5,2238 -11565.3,8211.5 -12451.5,12107.9z"/>
   <path class="fil0" d="M120774.5 97061.8l120.7 132.6c-11,-11.9 -161.6,-89 -120.7,-132.6zm-32817.8 900.4c2602.5,38.2 5059.8,-359.6 7659.2,-103.7 9403.9,926.1 15049.5,-155.5 23825.2,-80.4 -203.7,935.1 -2173.5,3531 -3042.8,3882 -1644.3,664.1 -3476.5,374.6 -5382.1,1445.1 1704.2,238.6 3570.4,-412.2 5121.2,-797.6l308.6 1628.1c861,-866.4 986.4,-2405.5 1731.1,-3579 608.4,-958.7 1656.7,-2270.9 2645.1,-2908.3 1272.4,531 3956.2,345.5 5368.9,102.4 -1486.8,-673.1 -3414.4,-366.8 -5074.8,-415.9 349,-1096.1 1179.8,-1510.4 2492.8,-5245.5 675.2,-1920.4 1567.5,-4259.5 1759,-6309 -1523.9,2591.4 -2198.5,6178 -3609,9079.9 -1747.7,3595.7 -2462.7,2231.9 -10250.3,2411 -2013,46.3 -4065.8,-30.1 -6068.6,106 -7861.6,533.9 -3242.9,1011.7 -11881.9,-51.1 -1260.4,-155.1 -3182.6,-298.5 -4424.1,99.1 -888.1,284.4 -752.6,313.5 -1177.5,736.9z"/>
   <path class="fil0" d="M64296.7 121299.6c782.9,-1083.3 422.4,-6044.7 542.2,-7854.3 1262.7,643.4 2165.3,3057.3 1828,5135.8 -345.1,2127.2 -2532.7,3041.6 1116,4191.6 1445.3,-5612 2028.3,-4202 -3208,-12716.9 -473.4,-769.9 -841.3,-1230.1 -1220.3,-1862.9 -704.2,-1175.4 -370.6,-894.2 -757,-2033.7 -1538.4,3830 975,3513.3 1135.1,6941.3 111.7,2390.7 -895,6321.4 564,8199.1z"/>
   <path class="fil0" d="M129037.1 87813c-344.8,269.4 -37.5,66.3 -606.6,305.6 -474.4,199.4 -303.7,36.7 -853.4,311.6 65,1918.1 569.9,3492.2 1854.5,4027.1l-1074.6 -2461.6c2313.8,387.8 1532.4,1153.7 3247.9,1883.1 -616.4,-2865.8 -1450.9,-1199.8 -1837,-4073.2 -224.5,-1670 -604.5,-3642.2 255.4,-4867.6l1626.6 3377.3c432.6,-4616.7 -572.9,-6388.9 -4072.5,-8474.4 -638,-380.3 329.9,53.1 -776.4,-410.4 0.3,4554.9 1792.5,6301.8 2236.1,10382.5z"/>
   <path class="fil0" d="M81140.1 148723.7c728.6,2794.1 376.8,7014.9 1970,9092.4 511.4,-1354.1 264.6,-2116.1 284.1,-3671.4 19.2,-1535.4 634.2,-1733.5 570.9,-3030.2 -125.1,-2560.4 -996.3,165.5 -465.4,-6283.9 -377,226.4 -838.1,894.6 -1481.5,815.8l-2205.6 -6932.9c-530.2,4139.3 411.9,6498.6 1327.5,10010.2z"/>
   <path class="fil0" d="M72493.8 86772.4c375.2,-2540.2 1641.6,204.6 1927.4,1417.7 381.7,1619.3 286.8,3373.1 525.5,5064.8 615,-3090.1 752.9,-6217.1 745,-9453.4 -4.8,-1961.1 161,-3687.4 -723,-4759.2 -752.4,2192.3 -2334.1,4960.9 -2474.9,7730.1z"/>
   <path class="fil0" d="M74049.9 121626.6c-107.1,1234.2 428.7,2568.7 904,3650.9 2775.4,6319.2 14721.9,4940.7 17790.9,1480.8l4175.1 -5849.2c-2307.7,786.9 -3122.7,7234.4 -11007,8045.7 -3133.6,322.4 -5633.7,-398.9 -8125,-1552.9 -1668.9,-773 -1663.5,-849.9 -2446.5,-2503.9 -412.7,-871.9 -1217.2,-2586.6 -1291.5,-3271.4z"/>
   <path class="fil0" d="M79215.9 119959.3l657.5 7.5c420.7,2066.6 621.1,2934.5 2651.1,3126.5 -375.1,-601.4 8.5,-185.4 -604.2,-761.5 -403.1,-379 -349.4,-189.8 -678.2,-557.1 -576.3,-643.8 -520.3,-853.6 -464,-1742.9 1359.5,1007.7 2891.1,2142.3 5515.7,1990.8l-1594.6 -608.3c-1698,-297.2 -3308.3,-560.1 -3699.5,-2696.5 4399.8,-11.8 4346.9,2604.6 9435.3,47.1 -2857.2,54.2 -3023.8,875.5 -6508.5,-279 -3293.3,-1091 -3086.6,-883.5 -4710.6,1473.4z"/>
   <path class="fil1" d="M74655.4 102346.2l856.6 -574.1c1021.2,-671 2107.7,-931.3 3492.7,-1137.8 6276.5,-936.1 11986.5,892.7 16428.1,1243.4 -3734.7,-923.4 -3939.2,-1996.6 -10461.4,-2133.8 -2165.3,-45.6 -6573.6,-265.4 -8425.4,917.6l-1430.7 1079.6c-377.8,385.5 -100,80.4 -459.9,605.1z"/>
   <path class="fil0" d="M117687.2 114987.3l-2127.1 -863.2c-150.6,3997.1 4771.2,4106.7 5359.5,-572.1l-2814.3 59.2 -418.1 1376.1z"/>
   <path class="fil0" d="M87194.2 140739.4c3168,-1561.9 4016.1,-2114.5 4674.1,-5630 310.4,-1658.6 402.1,-1302.8 1034.1,-2458.6 -2898.8,906.4 -1247.3,3871.3 -5708.2,8088.6z"/>
   <path class="fil0" d="M76518.6 105241c1704.5,-285.3 1388.9,-2283.4 7791.5,-704.6 2795.9,689.4 5758.9,1841.1 8387.7,1767 -876.8,-435 -2951.5,-600.6 -4193,-1030.5 -1417.5,-491 -2853,-947.4 -4251.4,-1299.2 -1324.8,-333.3 -3077.8,-699 -4479.6,-596.6 -2125.6,155.2 -2264.5,1175.8 -3255.2,1863.9z"/>
   <path class="fil1" d="M108818.6 106979.5c1187.4,1272.4 -321.3,303.7 2945.9,-383.3 1250.6,-263 2484.5,-682.6 3753.9,-911.9 2248.8,-406.5 6574.3,-379.8 8982.2,-322.1 -2377.9,-1208.3 -14440.3,224.1 -15682,1617.3z"/>
   <path class="fil0" d="M122787.1 123438.2c-5928.6,1117.6 -3759.3,-809.4 -7904.6,-1729 798.1,1148 2143.6,1845 3567.3,2662.1 1970.1,1130.8 3579.8,679.9 4337.3,-933.1z"/>
   <path class="fil0" d="M91397 117810.1l3634 -163.9c-583.4,-1255.6 -2018.9,-2188.9 -3453.9,-2861.4 222.3,1922.6 470.8,1093.1 -180.1,3025.3z"/>
   <path class="fil1" d="M86403.5 123501.8c639.1,-68.5 750.6,16.8 1153.1,626.5l191.8 442.4c2083.6,-855.4 4755.1,-1310.5 5150.9,-3306.5 -1165,438.3 -1654.4,1102.2 -2643.5,1442.6 -1414.2,486.7 -2253,87.7 -3852.3,795z"/>
   <path class="fil0" d="M106987.7 103445.2l2558.5 1544.1c303.5,-1868.3 878.6,-3212 722.3,-5154 -1772.2,2382.2 353.5,2267.3 -3280.8,3609.9z"/>
   <path class="fil2" d="M105369.3 140147.3l194.7 1071.5 1007.5 -442.2c395.1,257.9 524.2,321.6 1020.5,600.4l532 -1103.7 1252.2 520.5c-1355.3,-2689 -2976.3,-690.8 -3262.2,-137.2 -93.9,-80.4 -273.4,-139 -328.6,-171.7l-416.1 -337.6z"/>
   <path class="fil0" d="M69351.6 128343.2c-27.8,-1421.2 -724.5,-4028.9 -1304.8,-5081.5 -465.7,883.6 -156.3,1784.9 224.4,2851.2 293.9,823.7 980.2,1705.2 1080.4,2230.3z"/>
   <path class="fil1" d="M124084.4 102532.9c-1540.8,-1272.5 -3480.5,-1454.2 -5907.3,-1166.3l5907.3 1166.3z"/>
   <path class="fil1" d="M73778.7 109073.1c-94.3,-1698.9 -376.2,-2440.3 -966,-3836.3l-390 330.3c437.2,1802.9 324.9,2079.2 1356,3506z"/>
   <path class="fil1" d="M103231.7 95159c613.7,-999.9 587.1,-2393.4 195.4,-3253.7l-195.4 3253.7z"/>
  </g>
 </g>
</svg>
